<?xml version="1.0" encoding="utf-8"?>
<!-- Generator: Adobe Illustrator 16.0.0, SVG Export Plug-In . SVG Version: 6.00 Build 0)  -->
<!DOCTYPE svg PUBLIC "-//W3C//DTD SVG 1.1//EN" "http://www.w3.org/Graphics/SVG/1.1/DTD/svg11.dtd">
<svg version="1.1" id="Capa_1" xmlns="http://www.w3.org/2000/svg" xmlns:xlink="http://www.w3.org/1999/xlink" x="0px" y="0px"
	 width="400px" height="400px" viewBox="0 0 400 400" enable-background="new 0 0 400 400" xml:space="preserve">
<g>
	<rect x="46.509" y="11.37" fill="#3CC5E9" width="306.981" height="18.95"/>
	<rect x="46.509" y="303.191" fill="#2AB9F7" width="306.981" height="15.159"/>
	<polygon fill="#F04F66" points="242.375,200.963 201.826,69.014 144.523,191.704 116.892,121.868 63.708,227.394 46.509,227.394 
		46.509,238.764 70.712,238.764 115.637,149.61 143.656,220.424 199.636,100.583 239.139,229.148 310.672,106.117 353.49,106.117 
		353.49,94.747 304.131,94.747 	"/>
	<path d="M364.86,329.721V0H35.14v329.721h155.386v36.371c-7.099,2.188-12.306,8.729-12.306,16.535
		c0,9.581,7.799,17.377,17.38,17.377c9.581,0,17.376-7.796,17.376-17.377c0-7.355-4.612-13.621-11.082-16.152v-36.754H364.86z
		 M195.6,388.631c-3.312,0-6.011-2.695-6.011-6.008s2.698-6.007,6.011-6.007c3.312,0,6.007,2.694,6.007,6.007
		S198.912,388.631,195.6,388.631z M353.49,11.37v18.95H46.51V11.37H353.49z M353.49,41.689v53.058v11.37v185.705H46.51v-53.058
		v-11.37V41.689H353.49z M46.509,303.191H353.49v15.159H46.51L46.509,303.191L46.509,303.191z"/>
</g>
</svg>
